<svg width="147" height="17" viewBox="0 0 147 17" fill="none" xmlns="http://www.w3.org/2000/svg">
<path d="M93.648 7.5083C94.5411 7.5083 95.2411 7.7856 95.7491 8.34019C96.257 8.89479 96.5109 9.66101 96.5109 10.6398V15.9285H94.7716V10.9991C94.7716 10.3798 94.6358 9.91276 94.364 9.59806C94.0922 9.28337 93.6686 9.12648 93.0942 9.12648C92.4269 9.12648 91.9143 9.35634 91.5554 9.81607C91.1965 10.2758 91.0166 10.8897 91.0166 11.6586V15.9285H89.2772V10.9991C89.2772 10.3798 89.1414 9.91276 88.8696 9.59806C88.5978 9.28337 88.1742 9.12648 87.5998 9.12648C86.9325 9.12648 86.4218 9.35634 86.0685 9.81607C85.7143 10.2758 85.5372 10.8897 85.5372 11.6586V15.9285H83.7979V7.68799H85.5372V8.99148C86.1632 8.00269 87.0403 7.5083 88.1696 7.5083C88.8162 7.5083 89.3625 7.65607 89.8086 7.9507C90.2547 8.24533 90.5808 8.66766 90.786 9.21678C91.0943 8.67769 91.4861 8.2581 91.964 7.958C92.4419 7.65789 93.0033 7.5083 93.6499 7.5083H93.648Z" fill="black"/>
<path d="M104.822 7.68897H106.562V15.9294H104.822V14.5512C104.494 15.041 104.081 15.4223 103.584 15.6968C103.086 15.9714 102.514 16.1091 101.868 16.1091C101.118 16.1091 100.449 15.9267 99.8585 15.5618C99.2681 15.197 98.8042 14.688 98.4659 14.034C98.1276 13.3799 97.958 12.6384 97.958 11.8092C97.958 10.9801 98.1276 10.2412 98.4659 9.59174C98.8042 8.94228 99.2709 8.43329 99.8669 8.06387C100.462 7.69444 101.124 7.50928 101.853 7.50928C102.489 7.50928 103.063 7.65157 103.577 7.93617C104.09 8.22076 104.506 8.60843 104.823 9.09735V7.68897H104.822ZM102.237 14.491C102.73 14.491 103.173 14.3788 103.569 14.1535C103.963 13.9291 104.274 13.6116 104.5 13.2021C104.726 12.7925 104.838 12.3282 104.838 11.8092C104.838 11.2902 104.725 10.8277 104.5 10.4236C104.274 10.0195 103.964 9.70211 103.569 9.47225C103.173 9.24238 102.73 9.12745 102.237 9.12745C101.744 9.12745 101.321 9.24238 100.936 9.47225C100.551 9.70211 100.251 10.0195 100.036 10.4236C99.8201 10.8277 99.7123 11.2902 99.7123 11.8092C99.7123 12.3282 99.8201 12.7934 100.036 13.2021C100.251 13.6116 100.551 13.9291 100.936 14.1535C101.321 14.3779 101.754 14.491 102.237 14.491Z" fill="black"/>
<path d="M112.996 7.5083C113.211 7.5083 113.381 7.52381 113.504 7.553V9.27607C113.299 9.256 113.124 9.24597 112.981 9.24597C112.139 9.24597 111.462 9.48861 110.949 9.97296C110.436 10.4573 110.18 11.1843 110.18 12.153V15.9285H108.44V7.68799H110.18V9.30617C110.447 8.72695 110.819 8.28272 111.296 7.97259C111.773 7.66337 112.34 7.5083 112.997 7.5083H112.996Z" fill="black"/>
<path d="M118.26 11.5987L122.738 15.9287H120.491L116.489 12.1231V15.9287H114.75V4.39258H116.489V11.2548L120.168 7.68913H122.4L118.26 11.5996V11.5987Z" fill="black"/>
<path d="M131.096 11.8538L131.081 12.1986H124.186C124.227 13.0178 124.496 13.6517 124.994 14.1014C125.491 14.5511 126.115 14.7755 126.864 14.7755C127.377 14.7755 127.834 14.666 128.234 14.4462C128.635 14.2264 128.927 13.9117 129.112 13.5021H130.913C130.615 14.3714 130.099 15.0227 129.366 15.4569C128.632 15.8911 127.798 16.1082 126.864 16.1082C126.002 16.1082 125.236 15.9239 124.564 15.5536C123.892 15.1841 123.368 14.6752 122.994 14.0257C122.619 13.3762 122.433 12.6419 122.433 11.8237C122.433 11.0055 122.62 10.2685 122.994 9.61357C123.369 8.95955 123.887 8.44509 124.549 8.07019C125.21 7.69529 125.962 7.5083 126.803 7.5083C127.645 7.5083 128.404 7.69347 129.051 8.0629C129.697 8.43232 130.2 8.94678 130.559 9.60627C130.918 10.2658 131.098 11.0147 131.098 11.8538H131.096ZM126.787 8.84279C126.088 8.84279 125.514 9.04986 125.062 9.46489C124.611 9.87901 124.333 10.4309 124.231 11.1205H129.279C129.207 10.4309 128.953 9.87992 128.517 9.46489C128.082 9.05077 127.504 8.84279 126.786 8.84279H126.787Z" fill="black"/>
<path d="M138.669 14.1307L138.977 15.5089C138.71 15.6585 138.354 15.7963 137.907 15.9212C137.46 16.0462 137.012 16.1082 136.561 16.1082C135.647 16.1082 134.903 15.8236 134.328 15.2544C133.754 14.6853 133.466 13.8561 133.466 12.7679V9.27705H131.896V7.68897H133.466V5.8163L135.205 5.44141V7.68897H138.684V9.27705H135.205V12.6776C135.205 13.2769 135.346 13.7366 135.629 14.0559C135.911 14.376 136.324 14.5357 136.868 14.5357C137.32 14.5357 137.919 14.4007 138.669 14.1316V14.1307Z" fill="black"/>
<path d="M143.749 16.1082C142.62 16.1082 141.686 15.8638 140.948 15.3739C140.209 14.885 139.758 14.2055 139.594 13.3362H141.348C141.461 13.826 141.713 14.1927 142.102 14.4371C142.492 14.6816 143.046 14.8038 143.765 14.8038C144.339 14.8038 144.788 14.7163 145.112 14.5411C145.435 14.3669 145.596 14.1042 145.596 13.7548C145.596 13.5551 145.537 13.3927 145.419 13.2678C145.301 13.1428 145.062 13.0178 144.703 12.8928C144.344 12.7679 143.785 12.6256 143.026 12.466C142.256 12.2963 141.653 12.1066 141.217 11.8968C140.78 11.687 140.468 11.4425 140.278 11.1625C140.088 10.8834 139.993 10.5386 139.993 10.129C139.993 9.30988 140.318 8.67045 140.97 8.21164C141.622 7.75191 142.502 7.52295 143.61 7.52295C144.647 7.52295 145.475 7.73275 146.096 8.15234C146.717 8.57194 147.11 9.16575 147.274 9.93471H145.519C145.396 9.58535 145.157 9.31262 144.803 9.11833C144.449 8.92312 144.005 8.82643 143.472 8.82643C142.938 8.82643 142.543 8.91673 142.225 9.09643C141.907 9.27612 141.748 9.53062 141.748 9.86082C141.748 10.0506 141.81 10.2056 141.933 10.3251C142.056 10.4446 142.289 10.5595 142.633 10.6699C142.977 10.7803 143.507 10.9098 144.226 11.0594C145.344 11.2993 146.15 11.5912 146.643 11.936C147.136 12.2808 147.381 12.7925 147.381 13.4721C147.381 14.3213 147.04 14.9726 146.358 15.4268C145.676 15.8811 144.806 16.1082 143.749 16.1082Z" fill="black"/>
<path d="M73.8063 15.9441L72.4615 13.349H64.0452L62.7004 15.9441H58.6436L66.6888 0.891602H70.0503L77.9569 15.9441H73.8063ZM68.2416 4.63785L65.4134 10.2349H71.0474L68.2416 4.63785Z" fill="black"/>
<path d="M58.0741 7.80677V4.11342C58.0741 2.04099 56.8942 0.892578 54.7651 0.892578H42.916V15.9168H46.7114V11.0285H50.9978L53.3378 15.9451H57.6214L55.0387 11.0203C56.8155 10.9291 58.0741 9.92937 58.0741 7.80677ZM46.7123 4.13531H53.3763C54.0941 4.13531 54.2787 4.45092 54.2787 5.08122V6.95025C54.2787 7.49025 54.0238 7.78396 53.3763 7.78396H46.7123V4.13531Z" fill="black"/>
<path d="M22.4687 0.891602H18.6621V15.9496H22.4687V0.891602Z" fill="black"/>
<path d="M16.0555 4.14164V0.891602H3.49047C1.90391 0.891602 0.618164 2.144 0.618164 3.68738V13.1538C0.618164 14.6972 1.90484 15.9496 3.49047 15.9496H16.0555V12.6995H5.23165C4.84555 12.6995 4.53162 12.3949 4.53162 12.0191V4.82302C4.53162 4.44721 4.84555 4.14255 5.23165 4.14255H16.0555V4.14164Z" fill="black"/>
<path d="M28.8193 3.87695V15.9439H37.5309C39.1859 15.9439 40.5278 14.6377 40.5278 13.0269V3.87695H28.8193Z" fill="#0099FF"/>
<path d="M29.9541 4.14164H40.5268V0.891602H28.2748C26.6254 0.891602 25.2891 2.19326 25.2891 3.79775V15.9441H29.0919V11.0458H35.9545V7.79576H29.0919V4.98083C29.0919 4.51654 29.478 4.14072 29.955 4.14072L29.9541 4.14164Z" fill="black"/>
</svg>
