<svg xmlns="http://www.w3.org/2000/svg" viewBox="0 0 200 70" fill="none">
  <!-- Finam wave stripes -->
  <g transform="translate(50, 0) scale(0.6)">
    <path d="M20 45C40 20 80 10 120 5C130 4 135 8 125 15C100 30 60 40 30 55C25 58 18 52 20 45Z" fill="#FF6B35"/>
    <path d="M35 55C55 30 95 20 135 15C145 14 150 18 140 25C115 40 75 50 45 65C40 68 33 62 35 55Z" fill="#FFD700"/>
    <path d="M15 35C35 10 75 0 115 -5C125 -6 130 -2 120 5C95 20 55 30 25 45C20 48 13 42 15 35Z" fill="#E53E3E"/>
  </g>
  <!-- ФИНАМ text -->
  <text x="10" y="65" font-family="Arial, Helvetica, sans-serif" font-size="32" font-weight="900" fill="white" letter-spacing="2">ФИНАМ</text>
</svg>
